<svg width="162" height="156" viewBox="0 0 162 156" fill="none" xmlns="http://www.w3.org/2000/svg">
<path fill-rule="evenodd" clip-rule="evenodd" d="M75.7008 135.574C113.139 135.574 143.488 105.225 143.488 67.7872C143.488 30.3494 113.139 0 75.7008 0C38.263 0 7.91357 30.3494 7.91357 67.7872C7.91357 105.225 38.263 135.574 75.7008 135.574Z" fill="#4BD2C5"/>
<path fill-rule="evenodd" clip-rule="evenodd" d="M23.051 70.3259C21.6894 71.0457 20.328 71.7658 18.9665 72.4853C17.4394 73.2911 15.914 74.1032 14.385 74.9013C11.1559 76.5875 7.9249 78.2666 4.6946 79.9483C4.65317 79.8473 4.61174 79.7464 4.57031 79.6457C5.09667 79.0338 5.5962 78.367 6.15413 77.82C8.0013 76.0099 9.8483 74.1957 11.7383 72.4783C12.7422 71.5656 13.9163 71.3136 15.0886 71.556C16.4879 71.846 17.3341 70.7328 18.136 69.4093C19.3249 68.3588 20.514 67.309 21.703 66.2587C22.0389 66.0534 22.3735 65.8436 22.7111 65.6437C23.2598 65.3189 23.6853 65.528 24.0219 66.2223C24.8744 67.9799 24.9112 68.0464 26.1765 66.8881C27.5564 65.6256 28.9559 64.7266 30.6643 64.994C31.1175 65.0648 31.6325 64.6439 32.0855 64.3464C32.7743 63.8938 33.411 63.2706 34.1131 62.8738C34.6315 62.5812 35.22 62.5419 35.775 62.3754C36.2912 62.2208 36.8047 62.0473 37.3195 61.8821C38.1099 61.5622 38.9006 61.242 39.6911 60.9219C39.7141 61.0291 39.7368 61.1365 39.7597 61.244C39.2183 61.6099 38.6768 61.9763 38.1357 62.3427C38.0246 62.3682 37.9068 62.368 37.803 62.4219C35.1884 63.7893 32.5702 65.144 29.9632 66.54C27.6527 67.7775 25.3546 69.0622 23.051 70.3259Z" fill="white"/>
<path fill-rule="evenodd" clip-rule="evenodd" d="M29.1743 53.9716C31.5461 53.0665 33.9117 52.1447 36.2918 51.2626C37.7777 50.7122 39.2893 50.2317 40.7793 49.6924C41.01 49.6088 41.1866 49.3762 41.3883 49.2126C41.5002 49.269 41.6123 49.3254 41.7243 49.3817C41.7265 49.5067 41.7286 49.6316 41.7306 49.7566C40.983 50.1512 40.259 50.6016 39.4836 50.9306C36.4735 52.2078 33.4466 53.445 30.4284 54.7033C30.2776 54.7663 30.1505 54.8864 30.0122 54.98C29.8431 54.9788 29.6742 54.978 29.5052 54.977C29.3949 54.642 29.2845 54.3068 29.1743 53.9716Z" fill="white"/>
<path fill-rule="evenodd" clip-rule="evenodd" d="M29.1742 53.9714C29.2844 54.3066 29.3947 54.6418 29.5051 54.9768C29.4879 54.9992 29.4757 55.0327 29.4531 55.0425C27.046 56.0852 24.6385 57.1271 22.2283 58.1627C22.1653 58.1897 22.0719 58.1462 21.9819 58.1341C22.6648 57.1527 24.4385 56.1872 25.1582 56.4495C25.253 55.5114 26.1135 55.4959 26.7222 55.1711C27.4119 54.8032 28.1248 54.4792 28.8278 54.136C28.9434 54.0812 29.0587 54.0263 29.1742 53.9714Z" fill="white"/>
<path fill-rule="evenodd" clip-rule="evenodd" d="M41.3883 7.28442C41.3883 7.28442 48.6454 9.42852 49.82 13.2017C50.9945 16.975 76.2227 9.62378 76.2227 10.4702C76.2227 11.3167 55.3382 22.9007 55.3382 22.9007L31.9086 32.757L24.3949 35.1036L14.4255 39.5653C13.3508 38.6155 14.9261 39.1476 15.6441 38.4777C27.1121 27.7775 20.0399 30.5707 23.7754 23.4479C27.5108 16.3251 26.9616 14.5955 30.0122 12.3352C33.0628 10.0749 41.3883 7.28442 41.3883 7.28442Z" fill="white"/>
<path fill-rule="evenodd" clip-rule="evenodd" d="M125.606 13.6108C124.913 13.8978 124.208 14.142 123.529 14.4776C116.434 17.9884 109.346 21.5259 102.25 25.0318C94.5721 28.8245 86.8877 32.5939 79.2041 36.366C78.6173 36.654 78.0126 36.882 77.4163 37.1381C77.3849 37.0511 77.3535 36.9638 77.3223 36.8768C77.9556 36.3934 78.5955 35.9236 79.2214 35.4246C82.5138 32.7995 85.7569 30.0644 89.1082 27.5718C91.5486 25.7568 94.1386 24.279 96.6453 22.6091C97.5751 21.9898 98.4432 22.0873 99.3015 22.7415C99.9235 23.2159 100.41 23.1631 101.05 22.6067C104.911 19.2496 108.802 15.9511 112.708 12.6821C114.319 11.3337 115.957 10.026 117.648 8.85571C118.65 8.16206 119.778 7.77315 120.849 7.24722C121.974 7.19986 122.827 8.0279 123.645 8.82655C125.089 10.2351 125.129 10.3638 126.321 8.79169C127.43 7.32987 128.775 7.0486 130.056 7.67625C131.952 8.60447 133.661 8.21029 135.453 7.40134C136.027 7.14221 136.709 7.28295 137.342 7.24064C137.356 7.33272 137.371 7.42457 137.385 7.51665C136.247 8.13707 135.118 8.78818 133.968 9.37068C132.012 10.362 130.04 11.2997 128.081 12.2805C127.248 12.6973 126.43 13.166 125.606 13.6108Z" fill="white"/>
<path fill-rule="evenodd" clip-rule="evenodd" d="M32.4143 25.1966C32.1343 24.3097 31.8377 23.4277 31.5789 22.5348C31.2901 21.5385 30.8889 21.2152 29.8382 21.1781C29.1349 21.153 28.432 21.1085 27.729 21.0708C27.0655 21.0354 26.4021 20.9976 25.7386 20.9607C25.727 20.8887 25.7156 20.8163 25.7041 20.7439C27.0884 20.3785 28.4695 19.9995 29.8587 19.6537C30.4573 19.5048 31.0706 19.3484 31.681 19.3311C32.6041 19.3044 33.1079 19.823 33.0598 20.7227C32.9797 22.2175 32.8374 23.7088 32.7214 25.2017C32.6191 25.2 32.5167 25.1983 32.4143 25.1966Z" fill="#EDF8F7"/>
<path fill-rule="evenodd" clip-rule="evenodd" d="M40.3249 9.26483C39.6125 9.52101 38.8988 9.7743 38.1876 10.034C36.4845 10.6565 34.7848 11.2877 33.0792 11.9032C32.4196 12.1414 31.8682 11.8105 31.911 11.1654C31.9268 10.9293 32.165 10.5495 32.3606 10.507C34.8768 9.96218 37.4031 9.46546 39.9286 8.96398C40.0279 8.9441 40.142 8.99914 40.2493 9.01919C40.2746 9.10107 40.2998 9.18295 40.3249 9.26483Z" fill="#EDF8F7"/>
<path fill-rule="evenodd" clip-rule="evenodd" d="M46.6621 17.465C46.7059 17.4436 46.7523 17.431 46.801 17.4272C46.9258 17.3313 47.0504 17.2349 47.1751 17.1388C48.2892 16.5969 49.4036 16.0548 50.5177 15.5122C50.5546 15.6337 50.6622 15.8187 50.6179 15.8684C49.5484 17.0712 48.4626 18.2597 47.1779 19.6729C46.9735 18.798 46.8178 18.1314 46.6621 17.465Z" fill="#EDF8F7"/>
<path fill-rule="evenodd" clip-rule="evenodd" d="M62.6157 14.3881C63.464 13.9926 64.3125 13.5971 65.1607 13.2017C64.6683 13.8261 64.261 14.5609 63.6513 15.034C63.2913 15.3132 62.6982 15.0425 62.6157 14.3881Z" fill="#EDF8F7"/>
<path fill-rule="evenodd" clip-rule="evenodd" d="M59.6466 34.0323C55.3244 35.8765 51.0022 37.7209 46.6798 39.5652L46.5674 39.3155C48.4458 38.078 50.1323 36.5293 52.466 36.0606C53.7565 35.8014 55.0171 35.376 56.2746 34.9736C57.287 34.6495 58.2742 34.2457 59.2741 33.8816C59.3711 33.8463 59.4797 33.8431 59.583 33.8247L59.6466 34.0323Z" fill="white"/>
<path fill-rule="evenodd" clip-rule="evenodd" d="M127.604 38.8377C125.005 39.7246 122.405 40.6114 119.758 41.5148C120.351 40.1887 125.054 38.5438 127.604 38.8377Z" fill="white"/>
<path fill-rule="evenodd" clip-rule="evenodd" d="M41.7304 49.7562C41.7284 49.6314 41.7263 49.5064 41.7241 49.3815C43.9217 48.586 46.1194 47.7904 48.317 46.9949C48.3457 47.063 48.3745 47.1311 48.4032 47.1991C46.4601 48.0405 44.5174 48.8819 42.5743 49.7233C42.4552 49.736 42.3359 49.7489 42.2167 49.7619C42.0547 49.76 41.8926 49.7581 41.7304 49.7562Z" fill="white"/>
<path fill-rule="evenodd" clip-rule="evenodd" d="M81.8789 70.6959C82.708 70.2419 83.5332 69.7802 84.3674 69.336C85.4882 68.7389 86.6125 68.1487 87.7435 67.5713C87.9921 67.4442 88.2865 67.2799 88.5393 67.3095C89.8758 67.466 90.7865 66.6138 91.8406 66.0526C92.2858 65.8156 92.8926 65.881 93.4266 65.8136C93.901 65.7534 94.3844 65.7366 94.8495 65.6347C95.6095 65.4684 96.3515 65.2173 97.113 65.0601C97.7701 64.9246 98.4435 64.866 99.1106 64.781C99.5417 64.7258 99.9745 64.6845 100.429 64.7746C94.2792 66.7944 88.1293 68.8143 81.9794 70.8341L81.8789 70.6959Z" fill="white"/>
<path fill-rule="evenodd" clip-rule="evenodd" d="M139.109 63.9601C136.291 64.7308 133.474 65.5061 130.654 66.2692C130.046 66.434 129.426 66.5558 128.812 66.6973C128.784 66.6294 128.756 66.5613 128.729 66.4931C129.249 66.2324 129.753 65.9339 130.291 65.7182C131.859 65.0894 133.437 64.4869 135.018 63.8913C135.331 63.7734 135.677 63.6506 136 63.6699C137.398 63.7535 138.508 63.1486 139.527 62.29C141 60.8579 142.766 60.607 144.704 60.9675C145.612 61.1365 146.534 61.2349 147.598 61.3864C146.556 61.6951 145.616 61.9824 144.671 62.2509C143.125 62.6901 141.574 63.1092 140.03 63.5556C139.711 63.648 139.415 63.823 139.109 63.9601L161.177 57.1921Z" fill="white"/>
<path fill-rule="evenodd" clip-rule="evenodd" d="M93.4588 106.722C93.4588 106.699 93.4588 106.677 93.459 106.655H93.7983C93.7981 106.677 93.7981 106.699 93.7981 106.722H93.4588Z" fill="#F5D7AB"/>
<path fill-rule="evenodd" clip-rule="evenodd" d="M31.0814 106.648C31.0894 106.672 31.0972 106.696 31.1052 106.72C31.0752 106.723 31.0451 106.726 31.015 106.729C31.0191 106.703 31.0184 106.676 31.0291 106.654C31.0336 106.645 31.0634 106.649 31.0814 106.648Z" fill="#D0A05D"/>
<path fill-rule="evenodd" clip-rule="evenodd" d="M97.9296 83.0156C98.0992 83.2988 98.2691 83.5819 98.439 83.865C98.2693 83.5819 98.0995 83.2988 97.9296 83.0156Z" fill="#DBB683"/>
<path fill-rule="evenodd" clip-rule="evenodd" d="M93.4588 106.722H93.7981C93.7981 106.699 93.7981 106.677 93.7983 106.655H93.459C93.4588 106.677 93.4588 106.699 93.4588 106.722Z" fill="#F8E5CA"/>
<path fill-rule="evenodd" clip-rule="evenodd" d="M86.4067 105.415C86.4102 105.471 86.414 105.527 86.4177 105.583C86.414 105.527 86.4102 105.471 86.4067 105.415Z" fill="#F8E5CA"/>
<path fill-rule="evenodd" clip-rule="evenodd" d="M94.7428 102.334C94.7517 102.257 94.7661 102.18 94.7659 102.102C94.7659 102.081 94.7225 102.06 94.699 102.039C94.7092 102.14 94.7238 102.238 94.7428 102.334Z" fill="#B47C3E"/>
<path fill-rule="evenodd" clip-rule="evenodd" d="M83.4976 90.3203C83.3845 90.4334 83.2711 90.547 83.158 90.6601C83.2711 90.547 83.3845 90.4334 83.4976 90.3203Z" fill="#7A5E41"/>
<path fill-rule="evenodd" clip-rule="evenodd" d="M67.4874 87.0428C67.4638 87.0187 67.4405 86.9949 67.4171 86.9707C67.4201 86.9864 67.4179 87.0078 67.4273 87.0164C67.4424 87.0305 67.4651 87.0361 67.4846 87.0453L67.4874 87.0428Z" fill="#B47C3E"/>
<path fill-rule="evenodd" clip-rule="evenodd" d="M31.0814 106.648C31.0634 106.649 31.0336 106.645 31.0291 106.654C31.0184 106.676 31.0191 106.703 31.015 106.729C31.0451 106.726 31.0752 106.723 31.1052 106.72C31.0972 106.696 31.0894 106.672 31.0814 106.648Z" fill="#725132"/>
<path fill-rule="evenodd" clip-rule="evenodd" d="M107.382 105.584C107.665 105.471 107.948 105.357 108.231 105.244C107.948 105.357 107.665 105.471 107.382 105.584Z" fill="#F8E5CA"/>
<path fill-rule="evenodd" clip-rule="evenodd" d="M107.042 105.923C107.155 105.81 107.269 105.697 107.382 105.584C107.269 105.697 107.156 105.81 107.042 105.923Z" fill="#F8E5CA"/>
<path fill-rule="evenodd" clip-rule="evenodd" d="M96.6848 103.885C96.798 103.715 96.9112 103.545 97.0244 103.375C96.9109 103.545 96.798 103.715 96.6848 103.885Z" fill="#D9B481"/>
<path fill-rule="evenodd" clip-rule="evenodd" d="M96.8548 103.375C96.9682 103.319 97.0813 103.262 97.1943 103.206C97.0813 103.262 96.9678 103.319 96.8548 103.375Z" fill="#DBB683"/>
<path fill-rule="evenodd" clip-rule="evenodd" d="M97.1945 103.206C97.2511 103.149 97.3077 103.092 97.3643 103.036C97.3077 103.092 97.2511 103.149 97.1945 103.206Z" fill="#DBB683"/>
<path fill-rule="evenodd" clip-rule="evenodd" d="M93.1193 99.8079C93.1758 99.921 93.2324 100.034 93.2891 100.148C93.2324 100.035 93.1758 99.9214 93.1193 99.8079Z" fill="#FAECDD"/>
<path fill-rule="evenodd" clip-rule="evenodd" d="M0.0959026 135.811L60.5735 151.87L150.281 145.575L102.224 127.292L0.0959026 135.811Z" fill="#111111" fill-opacity="0.07"/>
<path opacity="0.15" fill-rule="evenodd" clip-rule="evenodd" d="M30.4805 130.478V124.402H48.645V130.478H30.4805Z" fill="black"/>
<path opacity="0.15" fill-rule="evenodd" clip-rule="evenodd" d="M28.4619 122.377V116.301H46.6264V122.377H28.4619Z" fill="black"/>
<path opacity="0.15" fill-rule="evenodd" clip-rule="evenodd" d="M31.8262 114.275V108.2H49.9907V114.275H31.8262Z" fill="black"/>
<path opacity="0.15" fill-rule="evenodd" clip-rule="evenodd" d="M31.8262 106.175V100.099H49.9907V106.175H31.8262Z" fill="black"/>
<path opacity="0.3" fill-rule="evenodd" clip-rule="evenodd" d="M63.4458 124.402V118.326H81.6103V124.402H63.4458Z" fill="black"/>
<path opacity="0.15" fill-rule="evenodd" clip-rule="evenodd" d="M61.4277 116.301V110.225H79.5923V116.301H61.4277Z" fill="black"/>
<path opacity="0.15" fill-rule="evenodd" clip-rule="evenodd" d="M64.791 108.2V102.124H82.9555V108.2H64.791Z" fill="black"/>
<path opacity="0.15" fill-rule="evenodd" clip-rule="evenodd" d="M62.1001 91.9977V85.9219H80.2646V91.9977H62.1001Z" fill="black"/>
<path opacity="0.15" fill-rule="evenodd" clip-rule="evenodd" d="M64.791 100.099V94.0229H82.9555V100.099H64.791Z" fill="black"/>
<path opacity="0.15" fill-rule="evenodd" clip-rule="evenodd" d="M62.1001 83.8966V77.8208H80.2646V83.8966H62.1001Z" fill="black"/>
<path opacity="0.15" fill-rule="evenodd" clip-rule="evenodd" d="M108.521 129.127V123.052H126.685V129.127H108.521Z" fill="black"/>
<path opacity="0.15" fill-rule="evenodd" clip-rule="evenodd" d="M106.502 121.026V114.95H124.667V121.026H106.502Z" fill="black"/>
<path opacity="0.15" fill-rule="evenodd" clip-rule="evenodd" d="M109.866 112.925V106.849H128.031V112.925H109.866Z" fill="black"/>
<path opacity="0.15" fill-rule="evenodd" clip-rule="evenodd" d="M107.175 96.7233V90.6475H125.34V96.7233H107.175Z" fill="black"/>
<path opacity="0.15" fill-rule="evenodd" clip-rule="evenodd" d="M109.866 104.824V98.7485H128.031V104.824H109.866Z" fill="black"/>
<g opacity="0.9">
<path fill-rule="evenodd" clip-rule="evenodd" d="M44.4004 128.318V121.567H61.2194V128.318H44.4004Z" fill="#FFC217"/>
<path fill-rule="evenodd" clip-rule="evenodd" d="M43.0552 114.816V108.74H59.2014V114.816H43.0552Z" fill="#FFC217"/>
<path fill-rule="evenodd" clip-rule="evenodd" d="M43.0552 108.74V101.989H59.2014V108.74H43.0552Z" fill="#FFC217"/>
<path fill-rule="evenodd" clip-rule="evenodd" d="M44.4004 121.567V114.816H61.2194V121.567H44.4004Z" fill="#FFC217"/>
<path fill-rule="evenodd" clip-rule="evenodd" d="M44.4004 134.393V127.642H61.2194V134.393H44.4004Z" fill="#FFC217"/>
<path fill-rule="evenodd" clip-rule="evenodd" d="M42.3823 141.144V134.393H59.2013V141.144H42.3823Z" fill="#FFC217"/>
<path fill-rule="evenodd" clip-rule="evenodd" d="M43.0552 102.664V95.9133H59.2014V102.664H43.0552Z" fill="#FFC217"/>
<path fill-rule="evenodd" clip-rule="evenodd" d="M44.4004 125.683L61.2194 124.267V127.643H44.4004V125.683Z" fill="#FF3F64" fill-opacity="0.33"/>
<path fill-rule="evenodd" clip-rule="evenodd" d="M43.0552 112.856L59.2014 111.44V114.816H43.0552V112.856Z" fill="#FF3F64" fill-opacity="0.33"/>
<path fill-rule="evenodd" clip-rule="evenodd" d="M43.0552 106.78L59.2014 105.365V108.74H43.0552V106.78Z" fill="#FF3F64" fill-opacity="0.33"/>
<path fill-rule="evenodd" clip-rule="evenodd" d="M44.4004 118.932L61.2194 117.516V120.892H44.4004V118.932Z" fill="#FF3F64" fill-opacity="0.33"/>
<path fill-rule="evenodd" clip-rule="evenodd" d="M44.4004 132.434L61.2194 131.018V134.393H44.4004V132.434Z" fill="#FF3F64" fill-opacity="0.33"/>
<path fill-rule="evenodd" clip-rule="evenodd" d="M42.3823 139.185L59.2013 137.769V141.144H42.3823V139.185Z" fill="#FF3F64" fill-opacity="0.33"/>
<path fill-rule="evenodd" clip-rule="evenodd" d="M43.0552 100.03L59.2014 98.6138V101.989H43.0552V100.03Z" fill="#FF3F64" fill-opacity="0.33"/>
</g>
<g opacity="0.9">
<path fill-rule="evenodd" clip-rule="evenodd" d="M100.913 119.541V112.791H117.732V119.541H100.913Z" fill="#FFC217"/>
<path fill-rule="evenodd" clip-rule="evenodd" d="M99.5674 106.04V99.9639H115.714V106.04H99.5674Z" fill="#FFC217"/>
<path fill-rule="evenodd" clip-rule="evenodd" d="M100.913 112.79V106.04H117.732V112.79H100.913Z" fill="#FFC217"/>
<path fill-rule="evenodd" clip-rule="evenodd" d="M100.913 125.617V118.866H117.732V125.617H100.913Z" fill="#FFC217"/>
<path fill-rule="evenodd" clip-rule="evenodd" d="M98.8945 132.368V125.617H115.714V132.368H98.8945Z" fill="#FFC217"/>
<path fill-rule="evenodd" clip-rule="evenodd" d="M100.913 116.907L117.732 115.491V118.866H100.913V116.907Z" fill="#FF3F64" fill-opacity="0.33"/>
<path fill-rule="evenodd" clip-rule="evenodd" d="M99.5674 104.08L115.714 102.664V106.04H99.5674V104.08Z" fill="#FF3F64" fill-opacity="0.33"/>
<path fill-rule="evenodd" clip-rule="evenodd" d="M100.913 110.156L117.732 108.74V112.115H100.913V110.156Z" fill="#FF3F64" fill-opacity="0.33"/>
<path fill-rule="evenodd" clip-rule="evenodd" d="M100.913 123.658L117.732 122.242V125.617H100.913V123.658Z" fill="#FF3F64" fill-opacity="0.33"/>
<path fill-rule="evenodd" clip-rule="evenodd" d="M98.8945 130.409L115.714 128.993V132.368H98.8945V130.409Z" fill="#FF3F64" fill-opacity="0.33"/>
</g>
<g opacity="0.9">
<path fill-rule="evenodd" clip-rule="evenodd" d="M72.6572 125.617V118.866H89.4762V125.617H72.6572Z" fill="#FFC217"/>
<path fill-rule="evenodd" clip-rule="evenodd" d="M72.6572 131.693V124.942H89.4762V131.693H72.6572Z" fill="#FFC217"/>
<path fill-rule="evenodd" clip-rule="evenodd" d="M70.6392 138.444V131.693H87.4582V138.444H70.6392Z" fill="#FFC217"/>
<path fill-rule="evenodd" clip-rule="evenodd" d="M72.6572 122.983L89.4762 121.567V124.942H72.6572V122.983Z" fill="#FF3F64" fill-opacity="0.33"/>
<path fill-rule="evenodd" clip-rule="evenodd" d="M72.6572 129.733L89.4762 128.317V131.693H72.6572V129.733Z" fill="#FF3F64" fill-opacity="0.33"/>
<path fill-rule="evenodd" clip-rule="evenodd" d="M70.6392 136.484L87.4582 135.068V138.444H70.6392V136.484Z" fill="#FF3F64" fill-opacity="0.33"/>
</g>
<path fill-rule="evenodd" clip-rule="evenodd" d="M127.313 126.41C128.289 128.246 124.618 132.108 119.115 135.034C113.611 137.96 108.357 138.844 107.381 137.008C106.405 135.172 110.076 131.31 115.579 128.384C121.082 125.458 126.337 124.574 127.313 126.41Z" fill="#FCFC51"/>
<path fill-rule="evenodd" clip-rule="evenodd" d="M123.928 128.161C124.531 129.295 122.084 131.776 118.463 133.701C114.843 135.626 111.417 136.267 110.814 135.133C110.211 133.999 112.658 131.518 116.279 129.593C119.899 127.668 123.325 127.026 123.928 128.161Z" fill="#FFC217"/>
<mask id="mask0" mask-type="alpha" maskUnits="userSpaceOnUse" x="107" y="126" width="23" height="16">
<path fill-rule="evenodd" clip-rule="evenodd" d="M129.047 129.673C130.023 131.509 126.352 135.371 120.849 138.297C115.346 141.223 110.091 142.107 109.115 140.271L107.38 137.009C108.357 138.845 113.611 137.96 119.114 135.034C124.618 132.108 128.289 128.246 127.313 126.41" fill="white"/>
</mask>
<g mask="url(#mask0)">
<path fill-rule="evenodd" clip-rule="evenodd" d="M127.436 126.747L129.17 130.009C129.197 130.133 129.208 130.262 129.204 130.398L127.469 127.135C127.474 127 127.463 126.87 127.436 126.747Z" fill="#FCCE57"/>
</g>
<path fill-rule="evenodd" clip-rule="evenodd" d="M124.034 128.533C124.032 128.415 123.949 128.202 123.898 128.105C123.338 127.052 119.904 127.677 116.283 129.602C112.663 131.527 110.225 134.025 110.785 135.078C110.836 135.174 110.996 135.347 111.093 135.414C111.203 134.483 113.521 132.339 116.809 130.591C120.098 128.842 123.201 128.104 124.034 128.533Z" fill="#111111" fill-opacity="0.15"/>
<mask id="mask1" mask-type="alpha" maskUnits="userSpaceOnUse" x="107" y="126" width="23" height="16">
<path fill-rule="evenodd" clip-rule="evenodd" d="M129.047 129.673C130.023 131.509 126.352 135.371 120.849 138.297C115.346 141.223 110.091 142.107 109.115 140.271L107.38 137.009C108.357 138.845 113.611 137.96 119.114 135.034C124.618 132.108 128.289 128.246 127.313 126.41" fill="white"/>
</mask>
<g mask="url(#mask1)">
<mask id="mask2" mask-type="alpha" maskUnits="userSpaceOnUse" x="107" y="126" width="23" height="16">
<path fill-rule="evenodd" clip-rule="evenodd" d="M129.047 129.673C130.023 131.509 126.352 135.371 120.849 138.297C115.346 141.223 110.091 142.107 109.115 140.271L107.38 137.009C108.357 138.845 113.611 137.96 119.114 135.034C124.618 132.108 128.289 128.246 127.313 126.41" fill="white"/>
</mask>
<g mask="url(#mask2)">
<path fill-rule="evenodd" clip-rule="evenodd" d="M127.313 126.41L129.047 129.672C129.103 129.778 129.144 129.891 129.17 130.009L127.435 126.747C127.409 126.628 127.369 126.516 127.313 126.41Z" fill="#949494"/>
</g>
<path fill-rule="evenodd" clip-rule="evenodd" d="M127.469 127.135L129.204 130.398C129.198 130.574 129.166 130.76 129.109 130.955L127.375 127.692C127.431 127.498 127.463 127.311 127.469 127.135Z" fill="#FCFC51"/>
<path fill-rule="evenodd" clip-rule="evenodd" d="M127.375 127.693L129.109 130.955C128.523 132.978 125.28 135.941 120.849 138.297C115.346 141.223 110.091 142.107 109.115 140.271L107.38 137.009C108.357 138.845 113.611 137.96 119.114 135.034C123.545 132.678 126.788 129.716 127.375 127.693Z" fill="#FCCE57"/>
<path fill-rule="evenodd" clip-rule="evenodd" d="M129.109 130.955C128.523 132.978 125.28 135.941 120.849 138.297C115.346 141.223 110.091 142.107 109.115 140.271L107.38 137.009C108.357 138.845 113.611 137.96 119.114 135.034C123.545 132.678 126.788 129.716 127.375 127.693L129.109 130.955Z" fill="#FCCE57"/>
<path fill-rule="evenodd" clip-rule="evenodd" d="M129.089 130.917C128.503 132.941 125.26 135.903 120.829 138.259C115.326 141.185 110.071 142.069 109.095 140.233L107.36 136.971C108.337 138.807 113.591 137.923 119.094 134.997C123.525 132.641 126.768 129.678 127.355 127.655L129.089 130.917Z" fill="#FDB65A"/>
<mask id="mask3" mask-type="alpha" maskUnits="userSpaceOnUse" x="107" y="127" width="23" height="15">
<path fill-rule="evenodd" clip-rule="evenodd" d="M129.089 130.917C128.503 132.941 125.26 135.903 120.829 138.259C115.326 141.185 110.071 142.069 109.095 140.233L107.36 136.971C108.337 138.807 113.591 137.923 119.094 134.997C123.525 132.641 126.768 129.678 127.355 127.655L129.089 130.917Z" fill="white"/>
</mask>
<g mask="url(#mask3)">
<path fill-rule="evenodd" clip-rule="evenodd" d="M115.069 132.169L121.997 130.095L124.948 139.56L118.021 141.635L115.069 132.169Z" fill="#FCFC51"/>
</g>
</g>
<path fill-rule="evenodd" clip-rule="evenodd" d="M42.3151 121.084C43.8604 122.475 41.7313 127.36 37.5607 131.991C33.3902 136.623 28.755 139.251 27.2097 137.86C25.6644 136.469 27.7933 131.584 31.9638 126.952C36.1344 122.32 40.7698 119.692 42.3151 121.084Z" fill="#FCFC51"/>
<path fill-rule="evenodd" clip-rule="evenodd" d="M39.733 123.886C40.6877 124.746 39.2367 127.914 36.4929 130.961C33.7491 134.008 30.7499 135.783 29.7953 134.923C28.8406 134.064 30.2915 130.895 33.0353 127.848C35.7791 124.801 38.7784 123.027 39.733 123.886Z" fill="#FFC217"/>
<mask id="mask4" mask-type="alpha" maskUnits="userSpaceOnUse" x="27" y="121" width="19" height="20">
<path fill-rule="evenodd" clip-rule="evenodd" d="M45.0607 123.556C46.606 124.947 44.4771 129.832 40.3065 134.464C36.1359 139.096 31.5006 141.724 29.9553 140.332L27.2095 137.86C28.7548 139.251 33.3899 136.623 37.5605 131.991C41.7311 127.359 43.8602 122.475 42.3149 121.084" fill="white"/>
</mask>
<g mask="url(#mask4)">
<path fill-rule="evenodd" clip-rule="evenodd" d="M42.5454 121.358L45.2912 123.83C45.3588 123.937 45.4133 124.055 45.4556 124.184L42.7096 121.711C42.6675 121.582 42.613 121.464 42.5454 121.358Z" fill="#FCCE57"/>
</g>
<path fill-rule="evenodd" clip-rule="evenodd" d="M39.9604 124.2C39.9185 124.089 39.7674 123.917 39.6862 123.844C38.7999 123.046 35.7864 124.807 33.0426 127.855C30.2988 130.902 28.8621 134.083 29.7484 134.881C29.8297 134.954 30.0389 135.062 30.1531 135.092C29.9384 134.179 31.3828 131.372 33.875 128.604C36.3672 125.836 39.0306 124.081 39.9604 124.2Z" fill="#111111" fill-opacity="0.15"/>
<mask id="mask5" mask-type="alpha" maskUnits="userSpaceOnUse" x="27" y="121" width="19" height="20">
<path fill-rule="evenodd" clip-rule="evenodd" d="M45.0607 123.556C46.606 124.947 44.4771 129.832 40.3065 134.464C36.1359 139.096 31.5006 141.724 29.9553 140.332L27.2095 137.86C28.7548 139.251 33.3899 136.623 37.5605 131.991C41.7311 127.359 43.8602 122.475 42.3149 121.084" fill="white"/>
</mask>
<g mask="url(#mask5)">
<mask id="mask6" mask-type="alpha" maskUnits="userSpaceOnUse" x="27" y="121" width="19" height="20">
<path fill-rule="evenodd" clip-rule="evenodd" d="M45.0607 123.556C46.606 124.947 44.4771 129.832 40.3065 134.464C36.1359 139.096 31.5006 141.724 29.9553 140.332L27.2095 137.86C28.7548 139.251 33.3899 136.623 37.5605 131.991C41.7311 127.359 43.8602 122.475 42.3149 121.084" fill="white"/>
</mask>
<g mask="url(#mask6)">
<path fill-rule="evenodd" clip-rule="evenodd" d="M42.3151 121.084L45.0608 123.556C45.1498 123.636 45.2266 123.728 45.2915 123.83L42.5458 121.358C42.4808 121.256 42.404 121.164 42.3151 121.084Z" fill="#949494"/>
</g>
<path fill-rule="evenodd" clip-rule="evenodd" d="M42.7101 121.712L45.4561 124.184C45.5107 124.352 45.5445 124.538 45.5579 124.74L42.8121 122.267C42.7987 122.065 42.7647 121.879 42.7101 121.712Z" fill="#FCFC51"/>
<path fill-rule="evenodd" clip-rule="evenodd" d="M42.8118 122.267L45.5575 124.74C45.6988 126.842 43.6643 130.735 40.3065 134.464C36.1359 139.096 31.5006 141.724 29.9553 140.332L27.2095 137.86C28.7548 139.251 33.3899 136.623 37.5605 131.991C40.9183 128.262 42.9528 124.369 42.8118 122.267Z" fill="#FCCE57"/>
<path fill-rule="evenodd" clip-rule="evenodd" d="M45.5575 124.74C45.6988 126.842 43.6643 130.735 40.3065 134.464C36.1359 139.096 31.5006 141.724 29.9553 140.332L27.2095 137.86C28.7548 139.251 33.3899 136.623 37.5605 131.991C40.9183 128.262 42.9528 124.369 42.8118 122.267L45.5575 124.74Z" fill="#FCCE57"/>
<path fill-rule="evenodd" clip-rule="evenodd" d="M45.5263 124.711C45.6676 126.813 43.633 130.706 40.2753 134.436C36.1047 139.067 31.4693 141.695 29.924 140.304L27.1782 137.832C28.7235 139.223 33.3587 136.595 37.5293 131.963C40.887 128.234 42.9216 124.341 42.7805 122.239L45.5263 124.711Z" fill="#FDB65A"/>
<mask id="mask7" mask-type="alpha" maskUnits="userSpaceOnUse" x="27" y="122" width="19" height="19">
<path fill-rule="evenodd" clip-rule="evenodd" d="M45.5263 124.711C45.6676 126.813 43.633 130.706 40.2753 134.436C36.1047 139.067 31.4693 141.695 29.924 140.304L27.1782 137.832C28.7235 139.223 33.3587 136.595 37.5293 131.963C40.887 128.234 42.9216 124.341 42.7805 122.239L45.5263 124.711Z" fill="white"/>
</mask>
<g mask="url(#mask7)">
<path fill-rule="evenodd" clip-rule="evenodd" d="M32.7798 130.683L38.5799 126.364L44.5909 134.249L38.7908 138.568L32.7798 130.683Z" fill="#FCFC51"/>
</g>
</g>
<path fill-rule="evenodd" clip-rule="evenodd" d="M58.5293 141.144V134.393H78.7121V141.144H58.5293Z" fill="#FCFC51"/>
<path fill-rule="evenodd" clip-rule="evenodd" d="M58.5293 134.393V127.642H78.7121V134.393H58.5293Z" fill="#FCFC51"/>
<path fill-rule="evenodd" clip-rule="evenodd" d="M55.165 127.642V120.891H75.3479V127.642H55.165Z" fill="#FCFC51"/>
<path fill-rule="evenodd" clip-rule="evenodd" d="M53.147 120.891V114.14H73.3298V120.891H53.147Z" fill="#FCFC51"/>
<path fill-rule="evenodd" clip-rule="evenodd" d="M58.5293 138.987L78.7121 137.428V141.144H58.5293V138.987Z" fill="#FF7264" fill-opacity="0.5"/>
<path fill-rule="evenodd" clip-rule="evenodd" d="M55.165 125.485L75.3479 123.927V127.642H55.165V125.485Z" fill="#FF7264" fill-opacity="0.5"/>
<path fill-rule="evenodd" clip-rule="evenodd" d="M53.147 118.734L73.3298 117.176V120.891H53.147V118.734Z" fill="#FF7264" fill-opacity="0.5"/>
<path fill-rule="evenodd" clip-rule="evenodd" d="M58.5293 132.236L78.7121 130.677V134.393H58.5293V132.236Z" fill="#FF7264" fill-opacity="0.5"/>
<path fill-rule="evenodd" clip-rule="evenodd" d="M84.7671 141.144V134.393H104.95V141.144H84.7671Z" fill="#FCFC51"/>
<path fill-rule="evenodd" clip-rule="evenodd" d="M82.0762 134.393V127.642H102.259V134.393H82.0762Z" fill="#FCFC51"/>
<path fill-rule="evenodd" clip-rule="evenodd" d="M86.1128 127.642V120.891H106.296V127.642H86.1128Z" fill="#FCFC51"/>
<path fill-rule="evenodd" clip-rule="evenodd" d="M82.749 114.141V107.39H102.932V114.141H82.749Z" fill="#FCFC51"/>
<path fill-rule="evenodd" clip-rule="evenodd" d="M86.1128 120.892V114.141H106.296V120.892H86.1128Z" fill="#FCFC51"/>
<path fill-rule="evenodd" clip-rule="evenodd" d="M82.749 107.39V100.639H102.932V107.39H82.749Z" fill="#FCFC51"/>
<path fill-rule="evenodd" clip-rule="evenodd" d="M82.749 100.639V93.8879H102.932V100.639H82.749Z" fill="#FCFC51"/>
<path fill-rule="evenodd" clip-rule="evenodd" d="M84.7671 138.987L104.95 137.428V141.144H84.7671V138.987Z" fill="#FF7264" fill-opacity="0.5"/>
<path fill-rule="evenodd" clip-rule="evenodd" d="M82.0762 132.236L102.259 130.678V134.393H82.0762V132.236Z" fill="#FF7264" fill-opacity="0.5"/>
<path fill-rule="evenodd" clip-rule="evenodd" d="M86.1128 125.485L106.296 123.927V127.642H86.1128V125.485Z" fill="#FF7264" fill-opacity="0.5"/>
<path fill-rule="evenodd" clip-rule="evenodd" d="M82.749 111.983L102.932 110.425V114.14H82.749V111.983Z" fill="#FF7264" fill-opacity="0.5"/>
<path fill-rule="evenodd" clip-rule="evenodd" d="M86.1128 118.735L106.296 117.176V120.892H86.1128V118.735Z" fill="#FF7264" fill-opacity="0.5"/>
<path fill-rule="evenodd" clip-rule="evenodd" d="M82.749 105.233L102.932 103.674V107.39H82.749V105.233Z" fill="#FF7264" fill-opacity="0.5"/>
<path fill-rule="evenodd" clip-rule="evenodd" d="M82.749 98.4819L102.932 96.9233V100.639H82.749V98.4819Z" fill="#FF7264" fill-opacity="0.5"/>
</svg>
