<svg width="186" height="190" viewBox="0 0 186 190" fill="none" xmlns="http://www.w3.org/2000/svg">
<path fill-rule="evenodd" clip-rule="evenodd" d="M0.118395 164.383L74.7802 184.208L185.527 176.437L126.199 153.865L0.118395 164.383Z" fill="#EEEEEE"/>
<path fill-rule="evenodd" clip-rule="evenodd" d="M91.9577 167.372C138.176 167.372 175.643 129.904 175.643 83.6858C175.643 37.4674 138.176 0 91.9577 0C45.7393 0 8.2719 37.4674 8.2719 83.6858C8.2719 129.904 45.7393 167.372 91.9577 167.372Z" fill="#FFF1F4"/>
<path fill-rule="evenodd" clip-rule="evenodd" d="M26.9595 86.8203C25.2786 87.7089 23.5979 88.5978 21.917 89.4861C20.0317 90.4809 18.1486 91.4834 16.261 92.4687C12.2745 94.5504 8.28579 96.6233 4.29788 98.6994C4.24673 98.5748 4.19559 98.4502 4.14444 98.3259C4.79424 97.5705 5.41093 96.7473 6.09972 96.0719C8.38012 93.8373 10.6603 91.5976 12.9935 89.4775C14.233 88.3507 15.6825 88.0396 17.1296 88.3388C18.8571 88.6968 19.9018 87.3226 20.8918 85.6887C22.3595 84.3918 23.8274 83.0957 25.2954 81.7991C25.71 81.5457 26.1231 81.2867 26.5399 81.0398C27.2173 80.639 27.7426 80.8971 28.1581 81.7542C29.2106 83.924 29.256 84.0061 30.8181 82.5762C32.5216 81.0175 34.2493 79.9077 36.3584 80.2378C36.9179 80.3252 37.5536 79.8057 38.1129 79.4384C38.9633 78.8796 39.7493 78.1102 40.6161 77.6204C41.2561 77.2591 41.9826 77.2106 42.6678 77.0051C43.305 76.8142 43.9389 76.6001 44.5745 76.396C45.5502 76.0011 46.5264 75.6059 47.5024 75.2106C47.5307 75.343 47.5587 75.4756 47.587 75.6082C46.9186 76.06 46.2501 76.5123 45.5821 76.9647C45.445 76.9962 45.2995 76.9959 45.1714 77.0625C41.9436 78.7505 38.7113 80.4231 35.4929 82.1465C32.6405 83.6742 29.8033 85.2602 26.9595 86.8203Z" fill="white"/>
<path fill-rule="evenodd" clip-rule="evenodd" d="M34.5188 66.6301C37.4469 65.5127 40.3673 64.3747 43.3057 63.2856C45.14 62.6062 47.0062 62.0131 48.8456 61.3472C49.1304 61.244 49.3484 60.9569 49.5974 60.7549C49.7356 60.8246 49.8739 60.8942 50.0123 60.9636C50.015 61.118 50.0175 61.2721 50.02 61.4265C49.0971 61.9137 48.2033 62.4696 47.246 62.8759C43.5299 64.4525 39.7931 65.9799 36.067 67.5333C35.8809 67.6111 35.7239 67.7594 35.5533 67.875C35.3445 67.8735 35.1359 67.8725 34.9274 67.8712C34.7911 67.4576 34.6549 67.0438 34.5188 66.6301Z" fill="white"/>
<path fill-rule="evenodd" clip-rule="evenodd" d="M34.5188 66.6301C34.6549 67.0438 34.7911 67.4576 34.9274 67.8712C34.9062 67.8989 34.8911 67.9402 34.8632 67.9524C31.8915 69.2396 28.9194 70.5258 25.9439 71.8043C25.8662 71.8376 25.7509 71.784 25.6398 71.7691C26.4828 70.5575 28.6725 69.3655 29.561 69.6893C29.678 68.5312 30.7403 68.5121 31.4918 68.1111C32.3432 67.6569 33.2234 67.2569 34.0912 66.8333C34.234 66.7655 34.3763 66.6978 34.5188 66.6301Z" fill="white"/>
<path fill-rule="evenodd" clip-rule="evenodd" d="M49.5974 8.99316C49.5974 8.99316 58.5567 11.6401 60.0067 16.2983C61.4567 20.9565 92.6018 11.8812 92.6018 12.9261C92.6018 13.9711 66.8192 28.272 66.8192 28.272L37.8945 40.4399L28.6186 43.337L16.311 48.8451C14.9841 47.6725 16.929 48.3294 17.8154 47.5024C31.973 34.2927 23.2421 37.741 27.8537 28.9476C32.4652 20.1542 31.7872 18.019 35.5532 15.2285C39.3193 12.4381 49.5974 8.99316 49.5974 8.99316Z" fill="white"/>
<path fill-rule="evenodd" clip-rule="evenodd" d="M153.568 16.8034C152.712 17.1577 151.842 17.4592 151.004 17.8735C142.245 22.2077 133.495 26.5748 124.734 30.903C115.255 35.5852 105.769 40.2387 96.2831 44.8955C95.5586 45.2511 94.8122 45.5326 94.076 45.8487C94.0373 45.7413 93.9985 45.6335 93.9599 45.5261C94.7418 44.9293 95.5318 44.3493 96.3044 43.7333C100.369 40.4926 104.373 37.116 108.51 34.0388C111.523 31.7981 114.72 29.9736 117.815 27.9121C118.963 27.1475 120.034 27.268 121.094 28.0756C121.862 28.6613 122.463 28.596 123.253 27.9091C128.019 23.7647 132.823 19.6926 137.645 15.6569C139.634 13.9922 141.656 12.3778 143.744 10.9331C144.98 10.0767 146.373 9.59661 147.695 8.94733C149.084 8.88887 150.137 9.91111 151.147 10.8971C152.929 12.636 152.979 12.7949 154.451 10.854C155.819 9.04936 157.48 8.70212 159.062 9.47699C161.403 10.6229 163.512 10.1363 165.724 9.1376C166.433 8.81769 167.275 8.99145 168.056 8.93921C168.074 9.05288 168.092 9.16628 168.11 9.27996C166.705 10.0459 165.311 10.8497 163.892 11.5688C161.477 12.7927 159.042 13.9502 156.623 15.1611C155.595 15.6756 154.585 16.2543 153.568 16.8034Z" fill="white"/>
<path fill-rule="evenodd" clip-rule="evenodd" d="M38.5185 31.1067C38.1728 30.0118 37.8066 28.9229 37.4872 27.8206C37.1306 26.5906 36.6353 26.1915 35.3382 26.1458C34.47 26.1147 33.6022 26.0598 32.7344 26.0132C31.9152 25.9696 31.0963 25.9228 30.2771 25.8773C30.2628 25.7884 30.2488 25.6991 30.2345 25.6097C31.9435 25.1586 33.6485 24.6907 35.3636 24.2637C36.1025 24.08 36.8596 23.8869 37.6132 23.8655C38.7528 23.8325 39.3748 24.4728 39.3154 25.5835C39.2165 27.4288 39.0409 29.27 38.8977 31.113C38.7713 31.1109 38.6449 31.1088 38.5185 31.1067Z" fill="#FFF1F4"/>
<path fill-rule="evenodd" clip-rule="evenodd" d="M48.2846 11.4382C47.405 11.7545 46.524 12.0672 45.646 12.3878C43.5435 13.1562 41.4451 13.9356 39.3395 14.6954C38.5251 14.9894 37.8445 14.5809 37.8974 13.7846C37.9168 13.493 38.2109 13.0241 38.4524 12.9717C41.5587 12.2991 44.6775 11.6859 47.7953 11.0668C47.918 11.0422 48.0588 11.1102 48.1913 11.1349C48.2225 11.236 48.2536 11.3371 48.2846 11.4382Z" fill="#FFF1F4"/>
<path fill-rule="evenodd" clip-rule="evenodd" d="M56.1084 21.5616C56.1625 21.5351 56.2197 21.5196 56.2799 21.515C56.4339 21.3965 56.5878 21.2776 56.7416 21.1589C58.1171 20.4899 59.4928 19.8207 60.8683 19.1508C60.9138 19.3008 61.0467 19.5292 60.992 19.5906C59.6716 21.0754 58.3312 22.5426 56.7452 24.2873C56.4928 23.2072 56.3006 22.3843 56.1084 21.5616Z" fill="#FFF1F4"/>
<path fill-rule="evenodd" clip-rule="evenodd" d="M75.8031 17.763C76.8503 17.2748 77.8977 16.7866 78.945 16.2983C78.3371 17.0693 77.8342 17.9763 77.0815 18.5604C76.6371 18.9052 75.9049 18.5709 75.8031 17.763Z" fill="#FFF1F4"/>
<path fill-rule="evenodd" clip-rule="evenodd" d="M72.1382 42.0145C66.8022 44.2912 61.4663 46.5681 56.1301 48.8451L55.9914 48.5368C58.3103 47.009 60.3924 45.0971 63.2734 44.5185C64.8667 44.1985 66.4228 43.6734 67.9752 43.1765C69.2252 42.7764 70.4439 42.2779 71.6783 41.8284C71.798 41.7848 71.9321 41.7808 72.0596 41.7582L72.1382 42.0145Z" fill="white"/>
<path fill-rule="evenodd" clip-rule="evenodd" d="M156.034 47.9468C152.825 49.0418 149.616 50.1365 146.348 51.2518C147.08 49.6148 152.886 47.584 156.034 47.9468Z" fill="white"/>
<path fill-rule="evenodd" clip-rule="evenodd" d="M50.0201 61.4263C50.0175 61.2722 50.015 61.1179 50.0123 60.9637C52.7253 59.9816 55.4384 58.9995 58.1514 58.0173C58.1868 58.1014 58.2225 58.1855 58.2579 58.2694C55.8591 59.3082 53.4607 60.3469 51.0618 61.3857C50.9149 61.4014 50.7675 61.4173 50.6204 61.4333C50.4204 61.431 50.2202 61.4287 50.0201 61.4263Z" fill="white"/>
<path fill-rule="evenodd" clip-rule="evenodd" d="M99.585 87.2767C100.609 86.7163 101.627 86.1463 102.657 85.5979C104.041 84.8607 105.429 84.1322 106.825 83.4193C107.132 83.2624 107.495 83.0596 107.808 83.0961C109.457 83.2893 110.582 82.2373 111.883 81.5444C112.433 81.2518 113.182 81.3326 113.841 81.2493C114.427 81.1751 115.024 81.1543 115.598 81.0285C116.536 80.8232 117.452 80.5132 118.392 80.3192C119.203 80.1519 120.035 80.0795 120.858 79.9746C121.39 79.9065 121.925 79.8555 122.486 79.9667C114.894 82.4603 107.301 84.9538 99.7091 87.4474L99.585 87.2767Z" fill="white"/>
<path fill-rule="evenodd" clip-rule="evenodd" d="M170.237 78.9612C166.758 79.9127 163.281 80.8699 159.8 81.812C159.049 82.0154 158.283 82.1658 157.524 82.3405C157.49 82.2566 157.456 82.1725 157.422 82.0884C158.064 81.7665 158.687 81.398 159.351 81.1316C161.287 80.3555 163.235 79.6116 165.186 78.8763C165.572 78.7308 166 78.5791 166.398 78.603C168.125 78.7062 169.494 77.9594 170.753 76.8995C172.572 75.1315 174.752 74.8218 177.145 75.2668C178.266 75.4755 179.403 75.5969 180.717 75.784C179.43 76.165 178.27 76.5197 177.103 76.8512C175.195 77.3934 173.28 77.9107 171.375 78.4619C170.98 78.576 170.615 78.792 170.237 78.9612L181.144 75.784Z" fill="white"/>
<path fill-rule="evenodd" clip-rule="evenodd" d="M113.881 131.752C113.881 131.725 113.881 131.697 113.881 131.669H114.3C114.299 131.697 114.299 131.725 114.299 131.752H113.881Z" fill="#F5D7AB"/>
<path fill-rule="evenodd" clip-rule="evenodd" d="M36.8735 131.661C36.8834 131.691 36.893 131.72 36.9029 131.75C36.8658 131.754 36.8287 131.757 36.7916 131.761C36.7966 131.729 36.7957 131.695 36.8089 131.669C36.8144 131.658 36.8513 131.663 36.8735 131.661Z" fill="#D0A05D"/>
<path fill-rule="evenodd" clip-rule="evenodd" d="M119.4 102.486C119.61 102.836 119.819 103.185 120.029 103.535C119.82 103.185 119.61 102.836 119.4 102.486Z" fill="#DBB683"/>
<path fill-rule="evenodd" clip-rule="evenodd" d="M113.881 131.752H114.299C114.299 131.725 114.299 131.697 114.3 131.669H113.881C113.881 131.697 113.881 131.725 113.881 131.752Z" fill="#F8E5CA"/>
<path fill-rule="evenodd" clip-rule="evenodd" d="M105.175 130.139C105.179 130.208 105.184 130.277 105.188 130.347C105.184 130.277 105.179 130.208 105.175 130.139Z" fill="#F8E5CA"/>
<path fill-rule="evenodd" clip-rule="evenodd" d="M115.465 126.335C115.476 126.24 115.494 126.145 115.494 126.049C115.494 126.023 115.44 125.997 115.411 125.971C115.424 126.096 115.442 126.217 115.465 126.335Z" fill="#B47C3E"/>
<path fill-rule="evenodd" clip-rule="evenodd" d="M101.583 111.504C101.443 111.644 101.303 111.784 101.164 111.924C101.303 111.784 101.443 111.644 101.583 111.504Z" fill="#7A5E41"/>
<path fill-rule="evenodd" clip-rule="evenodd" d="M81.8177 107.458C81.7886 107.428 81.7598 107.398 81.7309 107.369C81.7347 107.388 81.732 107.414 81.7435 107.425C81.7621 107.442 81.7902 107.449 81.8143 107.461L81.8177 107.458Z" fill="#B47C3E"/>
<path fill-rule="evenodd" clip-rule="evenodd" d="M36.8735 131.661C36.8513 131.663 36.8144 131.658 36.8089 131.669C36.7957 131.695 36.7966 131.729 36.7916 131.761C36.8287 131.757 36.8658 131.754 36.9029 131.75C36.893 131.72 36.8834 131.691 36.8735 131.661Z" fill="#725132"/>
<path fill-rule="evenodd" clip-rule="evenodd" d="M131.069 130.348C131.418 130.208 131.768 130.068 132.117 129.928C131.768 130.068 131.418 130.208 131.069 130.348Z" fill="#F8E5CA"/>
<path fill-rule="evenodd" clip-rule="evenodd" d="M130.65 130.767C130.789 130.627 130.929 130.487 131.069 130.348C130.929 130.487 130.79 130.627 130.65 130.767Z" fill="#F8E5CA"/>
<path fill-rule="evenodd" clip-rule="evenodd" d="M117.863 128.25C118.003 128.041 118.143 127.831 118.282 127.621C118.142 127.831 118.003 128.041 117.863 128.25Z" fill="#D9B481"/>
<path fill-rule="evenodd" clip-rule="evenodd" d="M118.073 127.621C118.213 127.551 118.352 127.482 118.492 127.411C118.352 127.481 118.212 127.551 118.073 127.621Z" fill="#DBB683"/>
<path fill-rule="evenodd" clip-rule="evenodd" d="M118.492 127.412C118.562 127.342 118.632 127.272 118.702 127.202C118.632 127.272 118.562 127.342 118.492 127.412Z" fill="#DBB683"/>
<path fill-rule="evenodd" clip-rule="evenodd" d="M113.461 123.217C113.531 123.357 113.601 123.496 113.671 123.636C113.601 123.497 113.531 123.357 113.461 123.217Z" fill="#FAECDD"/>
<path d="M26.9946 124.063L30.7179 141.58C31.0585 143.182 32.6537 144.228 34.2904 143.88L63.7085 137.627C65.3237 137.283 66.382 135.696 66.0369 134.073L62.3135 116.556C61.9729 114.954 60.3777 113.909 58.741 114.256L29.3229 120.509C27.7123 120.874 26.654 122.461 26.9946 124.063Z" fill="#4BD2C5"/>
<path d="M58.7455 114.278L44.0365 117.404L48.9995 140.753L63.7085 137.627C65.3237 137.283 66.382 135.696 66.0369 134.073L62.3135 116.556C61.973 114.954 60.3823 113.93 58.7455 114.278Z" fill="#3CA89D"/>
<rect x="27.544" y="126.648" width="36.108" height="4.43342" transform="rotate(-12 27.544 126.648)" fill="#2E515B"/>
<path d="M52.3364 132.52L52.7541 134.485C52.8858 135.104 53.4856 135.49 54.1101 135.358L56.0914 134.937C56.716 134.804 57.1068 134.207 56.9752 133.588L56.5574 131.622C56.4257 131.003 55.826 130.617 55.2014 130.75L53.2201 131.171C52.5956 131.303 52.2047 131.9 52.3364 132.52Z" fill="#CAF1ED"/>
<path d="M58.1295 131.288L58.5473 133.254C58.679 133.873 59.2787 134.259 59.9033 134.126L61.8846 133.705C62.5091 133.572 62.9 132.976 62.7683 132.356L62.3506 130.391C62.2189 129.771 61.6191 129.385 60.9946 129.518L59.0133 129.939C58.3888 130.072 57.9979 130.669 58.1295 131.288Z" fill="#CAF1ED"/>
<path d="M52.277 118.22C52.3496 118.562 52.1332 118.921 51.7671 118.999L42.4205 120.985C42.0759 121.058 41.7154 120.845 41.6382 120.482C41.5656 120.14 41.782 119.781 42.1481 119.703L51.4947 117.717C51.8608 117.639 52.1998 117.857 52.277 118.22Z" fill="white" fill-opacity="0.5"/>
<path d="M40.2599 120.775C40.3326 121.116 40.1162 121.475 39.7501 121.553L37.8334 121.96C37.4888 122.033 37.1283 121.82 37.0511 121.457C36.9784 121.115 37.1948 120.756 37.5609 120.679L39.4776 120.271C39.8222 120.198 40.1827 120.411 40.2599 120.775Z" fill="white" fill-opacity="0.5"/>
<g filter="url(#filter0_d)">
<path d="M101.737 96.711L100.606 95.1896L98.8611 95.8863L97.7506 94.3709L95.9849 95.0615L94.8745 93.5462L93.1298 94.2429L92.0194 92.7275L90.2537 93.4181L89.1433 91.9028L87.3986 92.5995L86.2672 91.0781L84.5225 91.7747L83.4121 90.2594L81.6674 90.9561L80.536 89.4347L70.9102 123.004L72.6759 122.313L73.7863 123.828L75.531 123.132L76.6624 124.653L78.4071 123.957L79.5175 125.472L81.2832 124.781L82.3936 126.297L84.1383 125.6L85.2698 127.121L87.0144 126.425L88.1249 127.94L89.8696 127.243L91.001 128.765L92.7457 128.068L93.8561 129.583L103.482 96.0143L101.737 96.711Z" fill="white"/>
</g>
<rect x="83.205" y="94.9434" width="15.7244" height="2.10938" rx="1.05469" transform="rotate(16 83.205 94.9434)" fill="#EEEEEE"/>
<rect x="78.1405" y="104.286" width="12.5795" height="2.10938" rx="1.05469" transform="rotate(16 78.1405 104.286)" fill="#EEEEEE"/>
<rect x="92.4371" y="108.385" width="5.41619" height="2.10938" rx="1.05469" transform="rotate(16 92.4371 108.385)" fill="#EEEEEE"/>
<rect x="77.0129" y="108.218" width="12.5795" height="2.10938" rx="1.05469" transform="rotate(16 77.0129 108.218)" fill="#EEEEEE"/>
<rect x="91.3095" y="112.318" width="5.41619" height="2.10938" rx="1.05469" transform="rotate(16 91.3095 112.318)" fill="#EEEEEE"/>
<rect x="75.8912" y="112.13" width="12.5795" height="2.10938" rx="1.05469" transform="rotate(16 75.8912 112.13)" fill="#EEEEEE"/>
<rect x="90.1877" y="116.23" width="5.41619" height="2.10938" rx="1.05469" transform="rotate(16 90.1877 116.23)" fill="#EEEEEE"/>
<rect x="75.1805" y="117.778" width="8.4082" height="2.10938" rx="1.05469" transform="rotate(16 75.1805 117.778)" fill="#EEEEEE"/>
<rect x="84.9424" y="120.577" width="8.4082" height="2.10938" rx="1.05469" transform="rotate(16 84.9424 120.577)" fill="#EEEEEE"/>
<rect x="85.1675" y="99.4294" width="9.4565" height="2.10938" rx="1.05469" transform="rotate(16 85.1675 99.4294)" fill="#EEEEEE"/>
<rect x="77.1649" y="101.191" width="0.589666" height="0.298295" rx="0.149148" transform="rotate(16 77.1649 101.191)" fill="#CCCCCC"/>
<path d="M98.3071 107.564L97.1525 107.233L97.2347 106.946L98.3893 107.277L98.3071 107.564Z" fill="#CCCCCC"/>
<path d="M96.0188 106.908L94.8642 106.577L94.9464 106.29L96.101 106.621L96.0188 106.908Z" fill="#CCCCCC"/>
<path d="M93.7305 106.251L92.5759 105.92L92.6581 105.634L93.8127 105.965L93.7305 106.251Z" fill="#CCCCCC"/>
<path d="M91.4212 105.589L90.2666 105.258L90.3488 104.971L91.5035 105.303L91.4212 105.589Z" fill="#CCCCCC"/>
<path d="M89.1329 104.933L87.9783 104.602L88.0605 104.315L89.2152 104.646L89.1329 104.933Z" fill="#CCCCCC"/>
<path d="M86.8447 104.277L85.69 103.946L85.7722 103.659L86.9269 103.99L86.8447 104.277Z" fill="#CCCCCC"/>
<path d="M84.5354 103.615L83.3807 103.284L83.463 102.997L84.6176 103.328L84.5354 103.615Z" fill="#CCCCCC"/>
<path d="M82.2471 102.959L81.0924 102.628L81.1747 102.341L82.3293 102.672L82.2471 102.959Z" fill="#CCCCCC"/>
<path d="M79.9588 102.302L78.8042 101.971L78.8864 101.685L80.041 102.016L79.9588 102.302Z" fill="#CCCCCC"/>
<rect x="99.544" y="107.608" width="0.589666" height="0.298295" rx="0.149148" transform="rotate(16 99.544 107.608)" fill="#CCCCCC"/>
<path d="M88.3061 94.6551C88.2122 94.9828 88.4029 95.3478 88.7598 95.4501L97.8709 98.0627C98.2068 98.159 98.5771 97.977 98.6769 97.6289C98.7709 97.3012 98.5802 96.9362 98.2233 96.8338L89.1121 94.2212C88.7552 94.1189 88.4001 94.3274 88.3061 94.6551Z" fill="#CCCCCC"/>
<path d="M83.8135 93.3668C83.7196 93.6945 83.9103 94.0595 84.2672 94.1619L86.1356 94.6976C86.4715 94.7939 86.8417 94.612 86.9416 94.2638C87.0355 93.9361 86.8448 93.5711 86.488 93.4687L84.6195 92.933C84.2626 92.8306 83.9075 93.0391 83.8135 93.3668Z" fill="#CCCCCC"/>
<g clip-path="url(#clip0)">
<path d="M73.1633 172.107V172.858C73.1633 173.498 73.5597 173.999 74.066 173.999H76.7741C77.2805 173.999 77.6768 173.498 77.6768 172.858V172.107H73.1633Z" fill="#111111"/>
<path d="M94.9162 172.107V172.858C94.9162 173.498 95.3125 173.999 95.8189 173.999H98.527C99.0334 173.999 99.4297 173.498 99.4297 172.858V172.107H94.9162Z" fill="#111111"/>
<path d="M68.2535 145.51V168.323C68.2535 170.41 69.5966 172.135 71.2699 172.135H101.345C102.996 172.135 104.362 170.438 104.362 168.323V145.51C104.362 143.423 103.018 141.698 101.345 141.698H71.2699C69.5966 141.698 68.2535 143.395 68.2535 145.51Z" fill="#FF7264"/>
<path d="M101.345 141.698H86.3075V172.107H101.345C102.996 172.107 104.362 170.41 104.362 168.295V145.482C104.339 143.395 102.996 141.698 101.345 141.698Z" fill="#D96155"/>
<rect x="71.2699" y="145.51" width="30.0753" height="22.8136" fill="#FAFAFA"/>
<path d="M87.2322 140.196V141.698H93.2429V140.196C93.2429 139.556 92.8466 139.055 92.3402 139.055H88.1349C87.6285 139.055 87.2322 139.556 87.2322 140.196Z" fill="#D9A513"/>
<path d="M79.3501 140.196V141.698H85.3608V140.196C85.3608 139.556 84.9645 139.055 84.4581 139.055H80.2528C79.7685 139.055 79.3501 139.556 79.3501 140.196Z" fill="#FFC217"/>
<path d="M78.5135 143.646C78.5135 144.091 78.7997 144.48 79.174 144.48H88.7294C89.0817 144.48 89.3899 144.119 89.3899 143.646C89.3899 143.2 89.1037 142.811 88.7294 142.811H79.174C78.7997 142.811 78.5135 143.2 78.5135 143.646Z" fill="#FF877B"/>
<path d="M90.821 143.646C90.821 144.091 91.1072 144.48 91.4815 144.48H93.441C93.7933 144.48 94.1016 144.119 94.1016 143.646C94.1016 143.2 93.8153 142.811 93.441 142.811H91.4815C91.1072 142.811 90.821 143.2 90.821 143.646Z" fill="#FF877B"/>
<path d="M76.4295 160.539H77.8245V154.239H76.5645C76.3395 154.959 75.6645 155.589 74.4945 155.634L74.7645 156.984C75.5115 156.939 76.0605 156.66 76.4295 156.048V160.539ZM81.5699 160.539H82.9199V159.189H83.8919V157.974H82.9199V156.183H81.5699V157.974H80.2019C81.0569 157.029 81.2819 156.039 81.2819 154.824V154.239H79.9319V154.824C79.9319 156.129 79.7969 156.894 78.6719 157.929V159.189H81.5699V160.539ZM84.5045 157.839H85.9445V156.399H84.5045V157.839ZM84.5045 160.539H85.9445V159.099H84.5045V160.539ZM89.4316 160.629C91.0516 160.629 92.0866 159.369 92.0866 157.389C92.0866 155.409 91.0516 154.149 89.4316 154.149C87.8116 154.149 86.7766 155.409 86.7766 157.389C86.7766 159.369 87.8116 160.629 89.4316 160.629ZM89.4316 159.414C88.5766 159.414 88.1716 158.604 88.1716 157.389C88.1716 156.174 88.5766 155.364 89.4316 155.364C90.2866 155.364 90.6916 156.174 90.6916 157.389C90.6916 158.604 90.2866 159.414 89.4316 159.414ZM95.3906 160.629C97.0106 160.629 98.0456 159.369 98.0456 157.389C98.0456 155.409 97.0106 154.149 95.3906 154.149C93.7706 154.149 92.7356 155.409 92.7356 157.389C92.7356 159.369 93.7706 160.629 95.3906 160.629ZM95.3906 159.414C94.5356 159.414 94.1306 158.604 94.1306 157.389C94.1306 156.174 94.5356 155.364 95.3906 155.364C96.2456 155.364 96.6506 156.174 96.6506 157.389C96.6506 158.604 96.2456 159.414 95.3906 159.414Z" fill="#111111"/>
</g>
<path d="M110.494 103.949V153.744C110.494 156.727 112.92 159.193 115.943 159.193H170.273C173.256 159.193 175.722 156.767 175.722 153.744V103.949C175.722 100.966 173.295 98.5001 170.273 98.5001H115.903C112.92 98.5001 110.494 100.966 110.494 103.949Z" fill="#FAFAFA"/>
<path d="M110.494 103.949V114.807H175.722V103.949C175.722 100.966 173.295 98.5001 170.273 98.5001H115.903C112.92 98.5001 110.494 100.966 110.494 103.949Z" fill="#FF7264"/>
<path d="M122.983 107.528C124.477 107.528 125.687 106.318 125.687 104.824C125.687 103.33 124.477 102.119 122.983 102.119C121.489 102.119 120.278 103.33 120.278 104.824C120.278 106.318 121.489 107.528 122.983 107.528Z" fill="#4629D3"/>
<path d="M121.631 95.3182V103.472C121.631 104.227 122.227 104.824 122.983 104.824C123.739 104.824 124.335 104.227 124.335 103.472V95.3182C124.335 94.5625 123.739 93.9659 122.983 93.9659C122.227 93.9659 121.631 94.6023 121.631 95.3182Z" fill="#CCCCCC"/>
<path d="M136.386 107.528C137.88 107.528 139.091 106.318 139.091 104.824C139.091 103.33 137.88 102.119 136.386 102.119C134.893 102.119 133.682 103.33 133.682 104.824C133.682 106.318 134.893 107.528 136.386 107.528Z" fill="#4629D3"/>
<path d="M135.034 95.3182V103.472C135.034 104.227 135.631 104.824 136.386 104.824C137.142 104.824 137.739 104.227 137.739 103.472V95.3182C137.739 94.5625 137.142 93.9659 136.386 93.9659C135.631 93.9659 135.034 94.6023 135.034 95.3182Z" fill="#CCCCCC"/>
<path d="M149.79 107.528C151.283 107.528 152.494 106.318 152.494 104.824C152.494 103.33 151.283 102.119 149.79 102.119C148.296 102.119 147.085 103.33 147.085 104.824C147.085 106.318 148.296 107.528 149.79 107.528Z" fill="#4629D3"/>
<path d="M148.437 95.3182V103.472C148.437 104.227 149.034 104.824 149.79 104.824C150.545 104.824 151.142 104.227 151.142 103.472V95.3182C151.142 94.5625 150.545 93.9659 149.79 93.9659C149.034 93.9659 148.437 94.6023 148.437 95.3182Z" fill="#CCCCCC"/>
<path d="M163.193 107.528C164.687 107.528 165.898 106.318 165.898 104.824C165.898 103.33 164.687 102.119 163.193 102.119C161.699 102.119 160.489 103.33 160.489 104.824C160.489 106.318 161.699 107.528 163.193 107.528Z" fill="#4629D3"/>
<path d="M161.841 95.3182V103.472C161.841 104.227 162.437 104.824 163.193 104.824C163.949 104.824 164.545 104.227 164.545 103.472V95.3182C164.545 94.5625 163.949 93.9659 163.193 93.9659C162.437 93.9659 161.841 94.6023 161.841 95.3182Z" fill="#CCCCCC"/>
<path d="M118.807 121.011V126.102C118.807 127.017 119.523 127.733 120.437 127.733H125.528C126.443 127.733 127.159 127.017 127.159 126.102V121.011C127.159 120.097 126.443 119.381 125.528 119.381H120.437C119.562 119.381 118.807 120.097 118.807 121.011Z" fill="#CCCCCC"/>
<path d="M132.21 121.011V126.102C132.21 127.017 132.926 127.733 133.841 127.733H138.932C139.847 127.733 140.562 127.017 140.562 126.102V121.011C140.562 120.097 139.847 119.381 138.932 119.381H133.841C132.966 119.381 132.21 120.097 132.21 121.011Z" fill="#CCCCCC"/>
<path d="M145.614 121.011V126.102C145.614 127.017 146.33 127.733 147.244 127.733H152.335C153.25 127.733 153.966 127.017 153.966 126.102V121.011C153.966 120.097 153.25 119.381 152.335 119.381H147.244C146.369 119.381 145.614 120.097 145.614 121.011Z" fill="#CCCCCC"/>
<path d="M159.017 121.011V126.102C159.017 127.017 159.733 127.733 160.648 127.733H165.739C166.653 127.733 167.369 127.017 167.369 126.102V121.011C167.369 120.097 166.653 119.381 165.739 119.381H160.648C159.773 119.381 159.017 120.097 159.017 121.011Z" fill="#CCCCCC"/>
<path d="M118.807 132.227V137.318C118.807 138.233 119.523 138.949 120.437 138.949H125.528C126.443 138.949 127.159 138.233 127.159 137.318V132.227C127.159 131.313 126.443 130.597 125.528 130.597H120.437C119.562 130.597 118.807 131.313 118.807 132.227Z" fill="#CCCCCC"/>
<path d="M132.21 132.227V137.318C132.21 138.233 132.926 138.949 133.841 138.949H138.932C139.847 138.949 140.562 138.233 140.562 137.318V132.227C140.562 131.313 139.847 130.597 138.932 130.597H133.841C132.966 130.597 132.21 131.313 132.21 132.227Z" fill="#4629D3"/>
<path d="M145.614 132.227V137.318C145.614 138.233 146.33 138.949 147.244 138.949H152.335C153.25 138.949 153.966 138.233 153.966 137.318V132.227C153.966 131.313 153.25 130.597 152.335 130.597H147.244C146.369 130.597 145.614 131.313 145.614 132.227Z" fill="#6148D9"/>
<path d="M159.017 132.227V137.318C159.017 138.233 159.733 138.949 160.648 138.949H165.739C166.653 138.949 167.369 138.233 167.369 137.318V132.227C167.369 131.313 166.653 130.597 165.739 130.597H160.648C159.773 130.597 159.017 131.313 159.017 132.227Z" fill="#6148D9"/>
<path d="M118.807 143.443V148.534C118.807 149.449 119.523 150.165 120.437 150.165H125.528C126.443 150.165 127.159 149.449 127.159 148.534V143.443C127.159 142.528 126.443 141.813 125.528 141.813H120.437C119.562 141.813 118.807 142.568 118.807 143.443Z" fill="#CCCCCC"/>
<path d="M132.21 143.443V148.534C132.21 149.449 132.926 150.165 133.841 150.165H138.932C139.847 150.165 140.562 149.449 140.562 148.534V143.443C140.562 142.528 139.847 141.813 138.932 141.813H133.841C132.966 141.813 132.21 142.568 132.21 143.443Z" fill="#CCCCCC"/>
<path d="M145.614 143.443V148.534C145.614 149.449 146.33 150.165 147.244 150.165H152.335C153.25 150.165 153.966 149.449 153.966 148.534V143.443C153.966 142.528 153.25 141.813 152.335 141.813H147.244C146.369 141.813 145.614 142.568 145.614 143.443Z" fill="#CCCCCC"/>
<path d="M159.017 143.443V148.534C159.017 149.449 159.733 150.165 160.648 150.165H165.739C166.653 150.165 167.369 149.449 167.369 148.534V143.443C167.369 142.528 166.653 141.813 165.739 141.813H160.648C159.773 141.813 159.017 142.568 159.017 143.443Z" fill="#CCCCCC"/>
<path d="M137.959 110.949C137.959 111.585 138.476 112.142 139.152 112.142H156.414C157.05 112.142 157.607 111.625 157.607 110.949C157.607 110.313 157.09 109.756 156.414 109.756H139.152C138.476 109.756 137.959 110.273 137.959 110.949Z" fill="#FF877B"/>
<path d="M129.448 110.949C129.448 111.585 129.965 112.142 130.641 112.142H134.181C134.817 112.142 135.374 111.625 135.374 110.949C135.374 110.313 134.857 109.756 134.181 109.756H130.641C129.965 109.756 129.448 110.273 129.448 110.949Z" fill="#FF877B"/>
<defs>
<filter id="filter0_d" x="70.9102" y="89.4347" width="33.5716" height="41.1487" filterUnits="userSpaceOnUse" color-interpolation-filters="sRGB">
<feFlood flood-opacity="0" result="BackgroundImageFix"/>
<feColorMatrix in="SourceAlpha" type="matrix" values="0 0 0 0 0 0 0 0 0 0 0 0 0 0 0 0 0 0 127 0"/>
<feOffset dx="1" dy="1"/>
<feColorMatrix type="matrix" values="0 0 0 0 0.933333 0 0 0 0 0.933333 0 0 0 0 0.933333 0 0 0 1 0"/>
<feBlend mode="normal" in2="BackgroundImageFix" result="effect1_dropShadow"/>
<feBlend mode="normal" in="SourceGraphic" in2="effect1_dropShadow" result="shape"/>
</filter>
<clipPath id="clip0">
<rect width="37" height="37" fill="white" transform="translate(68.1875 138.805)"/>
</clipPath>
</defs>
</svg>
